<svg xmlns="http://www.w3.org/2000/svg" xmlns:xlink="http://www.w3.org/1999/xlink" width="500" zoomAndPan="magnify" viewBox="0 0 375 374.999991" height="500" preserveAspectRatio="xMidYMid meet" version="1.0"><defs><g/><clipPath id="9cddb891a2"><path d="M 120 156 L 289 156 L 289 183 L 120 183 Z M 120 156 " clip-rule="nonzero"/></clipPath><clipPath id="f2011b2038"><path d="M 119.195312 155.59375 L 286.820312 144.371094 L 289.125 178.796875 L 121.5 190.015625 Z M 119.195312 155.59375 " clip-rule="nonzero"/></clipPath><clipPath id="e4e79263c8"><path d="M 121.503906 190.085938 L 289.128906 178.867188 L 286.824219 144.441406 L 119.199219 155.664062 Z M 121.503906 190.085938 " clip-rule="nonzero"/></clipPath></defs><rect x="-37.5" width="450" fill="#ffffff" y="-37.499999" height="449.999989" fill-opacity="1"/><rect x="-37.5" width="450" fill="#231f20" y="-37.499999" height="449.999989" fill-opacity="1"/><g fill="#ffffff" fill-opacity="1"><g transform="translate(96.427344, 212.153511)"><g><path d="M 109.859375 -95.390625 C 114.828125 -90.835938 116.300781 -85.347656 114.28125 -78.921875 C 113.90625 -77.796875 113.441406 -76.710938 112.890625 -75.671875 C 111.859375 -73.804688 110.675781 -72.054688 109.34375 -70.421875 C 108.019531 -68.785156 106.613281 -67.222656 105.125 -65.734375 C 104.125 -64.679688 102.953125 -64.328125 101.609375 -64.671875 C 101.242188 -64.703125 101 -64.890625 100.875 -65.234375 C 100.8125 -65.566406 100.90625 -65.84375 101.15625 -66.0625 C 103.570312 -68.40625 105.695312 -71 107.53125 -73.84375 C 108.832031 -75.738281 109.78125 -77.785156 110.375 -79.984375 C 111.832031 -85.941406 110.195312 -90.847656 105.46875 -94.703125 C 103.238281 -96.460938 100.742188 -97.703125 97.984375 -98.421875 C 95.378906 -99.109375 92.765625 -99.554688 90.140625 -99.765625 C 87.515625 -99.984375 84.875 -100 82.21875 -99.8125 C 78.164062 -99.570312 74.144531 -99.097656 70.15625 -98.390625 C 66.175781 -97.691406 62.210938 -96.863281 58.265625 -95.90625 C 53.117188 -94.632812 48.070312 -93.078125 43.125 -91.234375 C 38.175781 -89.390625 33.375 -87.195312 28.71875 -84.65625 C 24.21875 -82.226562 20.046875 -79.320312 16.203125 -75.9375 C 12.785156 -72.925781 9.972656 -69.40625 7.765625 -65.375 C 4.941406 -60.03125 5.179688 -54.816406 8.484375 -49.734375 C 10.578125 -46.691406 13.070312 -43.992188 15.96875 -41.640625 C 20.46875 -37.921875 25.21875 -34.570312 30.21875 -31.59375 C 34.425781 -29.0625 38.628906 -26.570312 42.828125 -24.125 C 45.628906 -22.507812 48.40625 -20.882812 51.15625 -19.25 C 53.144531 -18.09375 55.085938 -16.898438 56.984375 -15.671875 C 58.878906 -14.453125 60.722656 -13.128906 62.515625 -11.703125 C 63.597656 -10.804688 64.789062 -10.585938 66.09375 -11.046875 C 70.5625 -12.347656 75.097656 -13.28125 79.703125 -13.84375 C 79.859375 -13.84375 80.007812 -13.859375 80.15625 -13.890625 C 81.207031 -14.078125 82.234375 -14.078125 83.234375 -13.890625 C 83.484375 -13.816406 83.703125 -13.695312 83.890625 -13.53125 C 84.078125 -13.363281 84.171875 -13.109375 84.171875 -12.765625 C 84.171875 -12.429688 84.066406 -12.175781 83.859375 -12 C 83.660156 -11.832031 83.4375 -11.75 83.1875 -11.75 C 81.570312 -11.71875 80.003906 -11.550781 78.484375 -11.25 C 76.960938 -10.957031 75.457031 -10.628906 73.96875 -10.265625 C 72.757812 -9.953125 71.582031 -9.6875 70.4375 -9.46875 C 70.28125 -9.4375 70.132812 -9.40625 70 -9.375 C 69.445312 -9.289062 68.898438 -9.15625 68.359375 -8.96875 C 67.816406 -8.78125 67.34375 -8.5 66.9375 -8.125 C 67.21875 -7.382812 67.625 -6.773438 68.15625 -6.296875 C 68.375 -6.023438 68.59375 -5.742188 68.8125 -5.453125 C 69.738281 -4.222656 70.546875 -2.945312 71.234375 -1.625 C 71.929688 -0.300781 72.453125 1.101562 72.796875 2.59375 C 73.609375 6.4375 72.351562 9.398438 69.03125 11.484375 C 67.914062 12.140625 66.75 12.695312 65.53125 13.15625 C 61.195312 14.707031 56.742188 15.359375 52.171875 15.109375 C 50.378906 14.992188 48.707031 14.546875 47.15625 13.765625 C 45.019531 12.648438 43.617188 11.082031 42.953125 9.0625 C 42.285156 7.050781 42.472656 4.96875 43.515625 2.8125 C 44.234375 1.425781 45.164062 0.234375 46.3125 -0.765625 C 47.769531 -2.066406 49.320312 -3.226562 50.96875 -4.25 C 52.625 -5.28125 54.332031 -6.222656 56.09375 -7.078125 C 56.832031 -7.453125 57.554688 -7.828125 58.265625 -8.203125 C 58.640625 -8.390625 59.015625 -8.578125 59.390625 -8.765625 C 59.421875 -9.171875 59.351562 -9.484375 59.1875 -9.703125 C 59.019531 -9.921875 58.828125 -10.109375 58.609375 -10.265625 C 58.515625 -10.296875 58.4375 -10.351562 58.375 -10.4375 C 55.363281 -12.738281 52.210938 -14.835938 48.921875 -16.734375 C 44.953125 -19.085938 40.953125 -21.414062 36.921875 -23.71875 C 35.242188 -24.675781 33.566406 -25.664062 31.890625 -26.6875 C 26.085938 -30.039062 20.503906 -33.722656 15.140625 -37.734375 C 11.816406 -40.203125 8.816406 -42.992188 6.140625 -46.109375 C 4.835938 -47.710938 3.738281 -49.445312 2.84375 -51.3125 C 0.945312 -55.289062 0.757812 -59.390625 2.28125 -63.609375 C 3.0625 -65.773438 4.101562 -67.773438 5.40625 -69.609375 C 6.707031 -71.441406 8.144531 -73.179688 9.71875 -74.828125 C 13.226562 -78.453125 17.097656 -81.539062 21.328125 -84.09375 C 28.367188 -88.425781 35.800781 -91.894531 43.625 -94.5 C 53.382812 -97.769531 63.363281 -100.097656 73.5625 -101.484375 C 77.09375 -101.960938 80.640625 -102.25 84.203125 -102.34375 C 87.765625 -102.4375 91.316406 -102.203125 94.859375 -101.640625 C 96.972656 -101.347656 99.023438 -100.898438 101.015625 -100.296875 C 103.003906 -99.703125 104.914062 -98.847656 106.75 -97.734375 C 107.863281 -97.015625 108.898438 -96.234375 109.859375 -95.390625 Z M 63.21875 -5.890625 C 62.625 -6.503906 61.941406 -6.597656 61.171875 -6.171875 C 59.191406 -5.285156 57.28125 -4.289062 55.4375 -3.1875 C 53.601562 -2.09375 51.847656 -0.851562 50.171875 0.53125 C 49.273438 1.3125 48.53125 2.21875 47.9375 3.25 C 46.820312 5.382812 46.695312 7.359375 47.5625 9.171875 C 48.4375 10.992188 50.050781 12.117188 52.40625 12.546875 C 52.96875 12.609375 53.46875 12.660156 53.90625 12.703125 C 54.0625 12.703125 54.1875 12.703125 54.28125 12.703125 C 57.875 12.597656 61.132812 11.867188 64.0625 10.515625 C 67.71875 8.953125 69.046875 6.25 68.046875 2.40625 C 67.617188 0.820312 66.988281 -0.648438 66.15625 -2.015625 C 65.320312 -3.378906 64.34375 -4.671875 63.21875 -5.890625 Z M 63.21875 -5.890625 "/></g></g></g><g fill="#ffffff" fill-opacity="1"><g transform="translate(178.077454, 212.153511)"><g><path d="M 28.71875 -13.046875 C 28.257812 -11.628906 27.335938 -10 25.953125 -8.15625 C 24.578125 -6.320312 22.859375 -5.140625 20.796875 -4.609375 C 18.734375 -4.085938 16.945312 -4.160156 15.4375 -4.828125 C 13.925781 -5.503906 13.097656 -7.296875 12.953125 -10.203125 C 11.242188 -6.890625 9.613281 -4.765625 8.0625 -3.828125 C 6.507812 -2.898438 4.894531 -2.546875 3.21875 -2.765625 C 1.320312 -3.066406 0.0390625 -3.800781 -0.625 -4.96875 C -1.289062 -6.144531 -1.515625 -7.5 -1.296875 -9.03125 C -1.078125 -10.5625 -0.609375 -12.03125 0.109375 -13.4375 C 0.660156 -14.476562 1.429688 -15.445312 2.421875 -16.34375 C 3.410156 -17.25 4.445312 -17.953125 5.53125 -18.453125 C 6.875 -19.128906 8.222656 -19.453125 9.578125 -19.421875 C 10.929688 -19.390625 12.378906 -18.941406 13.921875 -18.078125 C 13.953125 -18.046875 13.96875 -18.082031 13.96875 -18.1875 C 13.96875 -18.332031 14.003906 -18.519531 14.078125 -18.75 C 14.148438 -18.976562 14.28125 -19.160156 14.46875 -19.296875 C 14.976562 -19.671875 15.578125 -19.859375 16.265625 -19.859375 C 16.960938 -19.859375 17.5 -19.507812 17.875 -18.8125 C 17.945312 -17.914062 17.851562 -16.773438 17.59375 -15.390625 C 17.039062 -12.335938 17.039062 -10.144531 17.59375 -8.8125 C 18.15625 -7.476562 19.140625 -6.851562 20.546875 -6.9375 C 21.960938 -7.03125 23.796875 -8.425781 26.046875 -11.125 C 28.296875 -13.832031 29.1875 -14.472656 28.71875 -13.046875 Z M 3.734375 -5.890625 C 4.515625 -5.328125 5.40625 -5.398438 6.40625 -6.109375 C 7.414062 -6.828125 8.382812 -7.835938 9.3125 -9.140625 C 10.25 -10.441406 11.035156 -11.742188 11.671875 -13.046875 C 12.304688 -14.347656 12.65625 -15.316406 12.71875 -15.953125 C 10.820312 -16.960938 9.195312 -17.132812 7.84375 -16.46875 C 6.488281 -15.800781 5.410156 -14.707031 4.609375 -13.1875 C 3.804688 -11.675781 3.328125 -10.203125 3.171875 -8.765625 C 3.023438 -7.335938 3.210938 -6.378906 3.734375 -5.890625 Z M 3.734375 -5.890625 "/></g></g></g><g fill="#ffffff" fill-opacity="1"><g transform="translate(204.989493, 212.153511)"><g><path d="M 25.03125 -12.21875 C 25.539062 -12.65625 25.890625 -12.863281 26.078125 -12.84375 C 26.265625 -12.832031 26.332031 -12.691406 26.28125 -12.421875 C 26.226562 -12.160156 26.09375 -11.867188 25.875 -11.546875 C 25.3125 -10.722656 24.597656 -9.875 23.734375 -9 C 22.878906 -8.125 22.265625 -7.519531 21.890625 -7.1875 C 19.367188 -4.914062 17.097656 -3.6875 15.078125 -3.5 C 13.066406 -3.3125 11.316406 -3.726562 9.828125 -4.75 C 8.335938 -5.78125 7.132812 -6.957031 6.21875 -8.28125 C 5.300781 -9.601562 4.703125 -10.632812 4.421875 -11.375 C 4.296875 -11.15625 4.21875 -10.671875 4.1875 -9.921875 C 4.15625 -9.179688 4.140625 -8.300781 4.140625 -7.28125 C 4.109375 -6.289062 4.070312 -5.3125 4.03125 -4.34375 C 3.988281 -3.375 3.890625 -2.585938 3.734375 -1.984375 C 3.515625 -0.796875 2.796875 -0.28125 1.578125 -0.4375 C 0.710938 -0.53125 0.222656 -0.976562 0.109375 -1.78125 C 0.0351562 -2.289062 0 -2.804688 0 -3.328125 C 0 -4.441406 0 -5.539062 0 -6.625 C 0.03125 -11.09375 0.0859375 -15.546875 0.171875 -19.984375 C 0.171875 -22.128906 0.269531 -25.53125 0.46875 -30.1875 C 0.675781 -34.84375 1.015625 -39.769531 1.484375 -44.96875 C 1.953125 -50.164062 2.578125 -54.644531 3.359375 -58.40625 C 3.660156 -59.894531 4.160156 -61.300781 4.859375 -62.625 C 5.566406 -63.957031 6.664062 -64.804688 8.15625 -65.171875 C 8.789062 -65.304688 9.410156 -65.1875 10.015625 -64.8125 C 10.628906 -64.445312 11.1875 -63.707031 11.6875 -62.59375 C 12.15625 -61.40625 12.414062 -60.175781 12.46875 -58.90625 C 12.570312 -56.082031 12.234375 -52.507812 11.453125 -48.1875 C 10.671875 -43.875 9.703125 -39.390625 8.546875 -34.734375 C 7.390625 -30.078125 6.289062 -25.828125 5.25 -21.984375 C 4.664062 -19.816406 4.160156 -17.957031 3.734375 -16.40625 C 4.191406 -17.21875 4.800781 -18.132812 5.5625 -19.15625 C 6.320312 -20.175781 7.054688 -20.992188 7.765625 -21.609375 C 9.441406 -22.941406 11.359375 -23.40625 13.515625 -23 C 15.898438 -22.476562 16.625 -21.117188 15.6875 -18.921875 C 14.6875 -16.984375 13.453125 -15.503906 11.984375 -14.484375 C 10.515625 -13.460938 9.09375 -12.671875 7.71875 -12.109375 C 9.15625 -10.097656 10.789062 -8.488281 12.625 -7.28125 C 13.925781 -6.539062 15.359375 -6.421875 16.921875 -6.921875 C 18.484375 -7.429688 19.992188 -8.21875 21.453125 -9.28125 C 22.910156 -10.34375 24.101562 -11.320312 25.03125 -12.21875 Z M 6.609375 -56.71875 C 5.960938 -52.519531 5.390625 -47.222656 4.890625 -40.828125 C 4.390625 -34.441406 4.046875 -29.1875 3.859375 -25.0625 C 4.484375 -26.738281 5.207031 -29.546875 6.03125 -33.484375 C 6.851562 -37.429688 7.617188 -41.519531 8.328125 -45.75 C 9.035156 -49.988281 9.535156 -53.394531 9.828125 -55.96875 C 10.128906 -58.789062 10.082031 -60.628906 9.6875 -61.484375 C 9.300781 -62.335938 8.800781 -62.34375 8.1875 -61.5 C 7.570312 -60.664062 7.046875 -59.070312 6.609375 -56.71875 Z M 4.796875 -14.0625 C 4.953125 -13.976562 5.367188 -14.050781 6.046875 -14.28125 C 6.734375 -14.507812 7.492188 -14.828125 8.328125 -15.234375 C 9.171875 -15.640625 9.859375 -16.125 10.390625 -16.6875 C 11.660156 -18.101562 12.226562 -19.066406 12.09375 -19.578125 C 11.96875 -20.097656 11.507812 -20.285156 10.71875 -20.140625 C 9.9375 -20.003906 9.175781 -19.613281 8.4375 -18.96875 C 7.582031 -18.15625 6.769531 -17.257812 6 -16.28125 C 5.226562 -15.3125 4.828125 -14.570312 4.796875 -14.0625 Z M 4.796875 -14.0625 "/></g></g></g><g fill="#ffffff" fill-opacity="1"><g transform="translate(229.616548, 212.153511)"><g><path d="M 26.25 -12.765625 C 26.625 -12.734375 26.5625 -12.222656 26.0625 -11.234375 C 25.5625 -10.242188 24.738281 -9.101562 23.59375 -7.8125 C 22.457031 -6.53125 21.179688 -5.421875 19.765625 -4.484375 C 18.347656 -3.554688 16.941406 -3.132812 15.546875 -3.21875 C 14.492188 -3.320312 13.71875 -3.632812 13.21875 -4.15625 C 12.71875 -4.6875 12.375 -5.269531 12.1875 -5.90625 C 12 -6.539062 11.878906 -7.09375 11.828125 -7.5625 C 11.796875 -7.90625 11.753906 -8.160156 11.703125 -8.328125 C 11.648438 -8.492188 11.550781 -8.503906 11.40625 -8.359375 C 10.320312 -5.867188 8.441406 -4.625 5.765625 -4.625 C 4.273438 -4.625 3.0625 -5.28125 2.125 -6.59375 C 1.195312 -7.914062 0.609375 -9.570312 0.359375 -11.5625 C 0.117188 -13.550781 0.3125 -15.570312 0.9375 -17.625 C 1.09375 -18.300781 1.507812 -18.765625 2.1875 -19.015625 C 2.65625 -19.203125 3.144531 -19.1875 3.65625 -18.96875 C 4.164062 -18.75 4.4375 -18.421875 4.46875 -17.984375 C 4.46875 -17.523438 4.4375 -17.070312 4.375 -16.625 C 4.28125 -16.289062 4.21875 -15.972656 4.1875 -15.671875 C 4.125 -14.453125 4.144531 -13.113281 4.25 -11.65625 C 4.363281 -10.195312 4.75 -8.953125 5.40625 -7.921875 C 6.050781 -7.085938 6.757812 -6.976562 7.53125 -7.59375 C 8.3125 -8.21875 9 -9.179688 9.59375 -10.484375 C 10.050781 -11.515625 10.410156 -12.539062 10.671875 -13.5625 C 10.941406 -14.59375 11.109375 -15.390625 11.171875 -15.953125 C 11.242188 -16.179688 11.28125 -16.332031 11.28125 -16.40625 C 11.394531 -16.84375 11.507812 -17.273438 11.625 -17.703125 C 11.8125 -18.328125 12 -18.9375 12.1875 -19.53125 C 12.507812 -20.675781 13.320312 -21.15625 14.625 -20.96875 C 15.414062 -20.90625 15.847656 -20.519531 15.921875 -19.8125 C 15.984375 -18.84375 16 -17.875 15.96875 -16.90625 C 15.9375 -15.894531 15.882812 -14.90625 15.8125 -13.9375 C 15.726562 -12.53125 15.671875 -11.132812 15.640625 -9.75 C 15.609375 -7.738281 16.007812 -6.566406 16.84375 -6.234375 C 17.6875 -5.898438 18.710938 -6.113281 19.921875 -6.875 C 21.128906 -7.644531 22.289062 -8.679688 23.40625 -9.984375 C 23.507812 -10.097656 23.640625 -10.25 23.796875 -10.4375 C 24.015625 -10.726562 24.285156 -11.050781 24.609375 -11.40625 C 24.929688 -11.757812 25.238281 -12.066406 25.53125 -12.328125 C 25.820312 -12.585938 26.0625 -12.734375 26.25 -12.765625 Z M 26.25 -12.765625 "/></g></g></g><g fill="#ffffff" fill-opacity="1"><g transform="translate(254.370552, 212.153511)"><g><path d="M 21 -9.765625 C 22.300781 -11.835938 23.070312 -13.148438 23.3125 -13.703125 C 23.5625 -14.265625 23.757812 -14.238281 23.90625 -13.625 C 24.050781 -13.019531 23.628906 -11.644531 22.640625 -9.5 C 21.660156 -7.363281 20.441406 -5.710938 18.984375 -4.546875 C 17.535156 -3.390625 16.179688 -2.960938 14.921875 -3.265625 C 13.660156 -3.578125 12.757812 -4.457031 12.21875 -5.90625 C 11.675781 -7.351562 11.515625 -9.175781 11.734375 -11.375 C 11.734375 -11.40625 11.75 -11.5 11.78125 -11.65625 C 11.8125 -12.03125 11.875 -12.578125 11.96875 -13.296875 C 12.0625 -14.023438 12.128906 -14.78125 12.171875 -15.5625 C 12.210938 -16.34375 12.1875 -16.984375 12.09375 -17.484375 C 12 -17.992188 11.769531 -18.175781 11.40625 -18.03125 C 10.507812 -17.539062 9.628906 -16.578125 8.765625 -15.140625 C 7.910156 -13.710938 7.132812 -12.210938 6.4375 -10.640625 C 5.75 -9.078125 5.265625 -7.816406 4.984375 -6.859375 C 4.859375 -6.554688 4.742188 -6.234375 4.640625 -5.890625 C 4.492188 -5.453125 4.328125 -5.015625 4.140625 -4.578125 C 3.648438 -3.304688 2.796875 -2.8125 1.578125 -3.09375 C 0.898438 -3.25 0.5 -3.664062 0.375 -4.34375 C 0.34375 -4.863281 0.328125 -5.363281 0.328125 -5.84375 C 0.328125 -6.144531 0.3125 -6.421875 0.28125 -6.671875 C 0.207031 -10.429688 0.113281 -14.21875 0 -18.03125 C 0.03125 -18.46875 0.222656 -18.769531 0.578125 -18.9375 C 0.941406 -19.113281 1.367188 -19.203125 1.859375 -19.203125 C 2.222656 -19.203125 2.570312 -19.097656 2.90625 -18.890625 C 3.238281 -18.691406 3.445312 -18.269531 3.53125 -17.625 C 3.5625 -17.40625 3.578125 -17.1875 3.578125 -16.96875 C 3.609375 -16.84375 3.625 -16.726562 3.625 -16.625 C 3.695312 -16.101562 3.734375 -15.65625 3.734375 -15.28125 C 3.734375 -14.726562 3.769531 -14.347656 3.84375 -14.140625 C 3.925781 -13.941406 4.085938 -13.953125 4.328125 -14.171875 C 4.578125 -14.390625 4.976562 -14.914062 5.53125 -15.75 C 6.5 -17.238281 7.691406 -18.5 9.109375 -19.53125 C 10.421875 -20.457031 11.851562 -20.84375 13.40625 -20.6875 C 14.738281 -20.550781 15.632812 -19.851562 16.09375 -18.59375 C 16.28125 -17.945312 16.375 -17.296875 16.375 -16.640625 C 16.375 -15.992188 16.332031 -15.335938 16.25 -14.671875 C 16.21875 -13.992188 16.164062 -13.300781 16.09375 -12.59375 C 16.039062 -12.375 16 -12.15625 15.96875 -11.9375 C 15.75 -9.507812 15.828125 -7.882812 16.203125 -7.0625 C 16.578125 -6.25 17.144531 -5.976562 17.90625 -6.25 C 18.664062 -6.53125 19.695312 -7.703125 21 -9.765625 Z M 21 -9.765625 "/></g></g></g><g fill="#ffffff" fill-opacity="1"><g transform="translate(276.712622, 212.153511)"><g><path d="M 13.171875 -10.3125 C 12.648438 -9.226562 11.757812 -8.023438 10.5 -6.703125 C 9.238281 -5.378906 7.804688 -4.539062 6.203125 -4.1875 C 4.609375 -3.832031 3.082031 -4.382812 1.625 -5.84375 C 1.0625 -6.488281 0.648438 -7.226562 0.390625 -8.0625 C 0.128906 -8.894531 0.0351562 -9.71875 0.109375 -10.53125 C 0.109375 -10.757812 0.109375 -11.039062 0.109375 -11.375 C 0.109375 -12.238281 0.144531 -13.238281 0.21875 -14.375 C 0.289062 -15.507812 0.457031 -16.53125 0.71875 -17.4375 C 0.988281 -18.351562 1.398438 -18.90625 1.953125 -19.09375 C 3.566406 -19.5 4.441406 -18.941406 4.578125 -17.421875 C 4.578125 -16.929688 4.554688 -16.441406 4.515625 -15.953125 C 4.484375 -15.691406 4.46875 -15.453125 4.46875 -15.234375 C 4.4375 -14.523438 4.40625 -13.816406 4.375 -13.109375 C 4.375 -12.546875 4.347656 -11.984375 4.296875 -11.421875 C 4.253906 -8.972656 4.800781 -7.515625 5.9375 -7.046875 C 7.070312 -6.578125 8.367188 -7.070312 9.828125 -8.53125 C 11.285156 -9.988281 12.238281 -11.195312 12.6875 -12.15625 C 13.132812 -13.125 13.457031 -13.328125 13.65625 -12.765625 C 13.863281 -12.210938 13.703125 -11.394531 13.171875 -10.3125 Z M 4.234375 -24.328125 C 4.015625 -24.140625 3.75 -24.019531 3.4375 -23.96875 C 3.125 -23.914062 2.847656 -23.941406 2.609375 -24.046875 C 2.429688 -24.203125 2.316406 -24.398438 2.265625 -24.640625 C 2.210938 -24.890625 2.1875 -25.179688 2.1875 -25.515625 C 2.1875 -25.585938 2.203125 -25.65625 2.234375 -25.71875 C 2.265625 -26.019531 2.34375 -26.328125 2.46875 -26.640625 C 2.800781 -27.453125 3.503906 -27.820312 4.578125 -27.75 C 4.941406 -27.695312 5.226562 -27.546875 5.4375 -27.296875 C 5.65625 -27.046875 5.707031 -26.75 5.59375 -26.40625 C 5.332031 -25.570312 4.878906 -24.878906 4.234375 -24.328125 Z M 4.234375 -24.328125 "/></g></g></g><g clip-path="url(#9cddb891a2)"><g clip-path="url(#f2011b2038)"><g clip-path="url(#e4e79263c8)"><path fill="#ffffff" d="M 122.574219 168.832031 C 122.167969 168.402344 121.496094 168.378906 121.0625 168.785156 C 120.632812 169.1875 120.609375 169.863281 121.015625 170.296875 C 123.53125 172.984375 125.75 175.039062 128.113281 176.679688 L 128.183594 176.722656 C 130.539062 178.351562 133.015625 179.550781 136.035156 180.527344 C 155.394531 186.777344 180.945312 178.375 205.855469 170.179688 C 240.480469 158.789062 273.847656 147.8125 286.050781 178.191406 C 286.269531 178.738281 286.894531 179.007812 287.441406 178.789062 C 287.992188 178.570312 288.257812 177.945312 288.039062 177.398438 C 275.085938 145.160156 240.789062 156.441406 205.191406 168.152344 C 180.605469 176.242188 155.386719 184.539062 136.683594 178.5 C 133.871094 177.589844 131.570312 176.476562 129.390625 174.972656 L 129.332031 174.925781 C 127.117188 173.390625 125 171.425781 122.578125 168.835938 Z M 122.574219 168.832031 " fill-opacity="1" fill-rule="evenodd"/></g></g></g><g fill="#ffffff" fill-opacity="1"><g transform="translate(181.599603, 219.853507)"><g><path d="M 1.046875 -7 L 1.796875 -7 L 1.796875 -3.046875 L 5.40625 -7 L 6.34375 -7 L 3.703125 -4.09375 L 6.59375 0 L 5.703125 0 L 3.203125 -3.546875 L 1.796875 -2.046875 L 1.796875 0 L 1.046875 0 Z M 1.046875 -7 "/></g></g></g><g fill="#ffffff" fill-opacity="1"><g transform="translate(194.69699, 219.853507)"><g><path d="M 4.203125 0.09375 C 3.703125 0.09375 3.234375 0.00390625 2.796875 -0.171875 C 2.359375 -0.359375 1.972656 -0.613281 1.640625 -0.9375 C 1.316406 -1.269531 1.0625 -1.65625 0.875 -2.09375 C 0.6875 -2.53125 0.59375 -3 0.59375 -3.5 C 0.59375 -4 0.6875 -4.46875 0.875 -4.90625 C 1.0625 -5.34375 1.316406 -5.722656 1.640625 -6.046875 C 1.972656 -6.378906 2.359375 -6.632812 2.796875 -6.8125 C 3.234375 -7 3.703125 -7.09375 4.203125 -7.09375 C 4.703125 -7.09375 5.171875 -7 5.609375 -6.8125 C 6.046875 -6.632812 6.425781 -6.378906 6.75 -6.046875 C 7.070312 -5.722656 7.328125 -5.34375 7.515625 -4.90625 C 7.703125 -4.46875 7.796875 -4 7.796875 -3.5 C 7.796875 -3 7.703125 -2.53125 7.515625 -2.09375 C 7.328125 -1.65625 7.070312 -1.269531 6.75 -0.9375 C 6.425781 -0.613281 6.046875 -0.359375 5.609375 -0.171875 C 5.171875 0.00390625 4.703125 0.09375 4.203125 0.09375 Z M 4.203125 -0.59375 C 4.597656 -0.59375 4.96875 -0.664062 5.3125 -0.8125 C 5.664062 -0.96875 5.96875 -1.171875 6.21875 -1.421875 C 6.476562 -1.679688 6.679688 -1.988281 6.828125 -2.34375 C 6.972656 -2.695312 7.046875 -3.082031 7.046875 -3.5 C 7.046875 -3.914062 6.972656 -4.300781 6.828125 -4.65625 C 6.679688 -5.007812 6.476562 -5.3125 6.21875 -5.5625 C 5.96875 -5.820312 5.664062 -6.023438 5.3125 -6.171875 C 4.96875 -6.328125 4.597656 -6.40625 4.203125 -6.40625 C 3.796875 -6.40625 3.421875 -6.328125 3.078125 -6.171875 C 2.734375 -6.023438 2.429688 -5.820312 2.171875 -5.5625 C 1.921875 -5.3125 1.71875 -5.007812 1.5625 -4.65625 C 1.414062 -4.300781 1.34375 -3.914062 1.34375 -3.5 C 1.34375 -3.082031 1.414062 -2.695312 1.5625 -2.34375 C 1.71875 -1.988281 1.921875 -1.679688 2.171875 -1.421875 C 2.429688 -1.171875 2.734375 -0.96875 3.078125 -0.8125 C 3.421875 -0.664062 3.796875 -0.59375 4.203125 -0.59375 Z M 4.203125 -0.59375 "/></g></g></g><g fill="#ffffff" fill-opacity="1"><g transform="translate(209.493711, 219.853507)"><g><path d="M 1.046875 -7 L 3.25 -7 C 3.757812 -7 4.234375 -6.90625 4.671875 -6.71875 C 5.117188 -6.53125 5.507812 -6.273438 5.84375 -5.953125 C 6.175781 -5.640625 6.4375 -5.269531 6.625 -4.84375 C 6.8125 -4.414062 6.90625 -3.96875 6.90625 -3.5 C 6.90625 -3.03125 6.8125 -2.582031 6.625 -2.15625 C 6.4375 -1.726562 6.175781 -1.351562 5.84375 -1.03125 C 5.507812 -0.71875 5.117188 -0.46875 4.671875 -0.28125 C 4.234375 -0.09375 3.757812 0 3.25 0 L 1.046875 0 Z M 3.25 -0.703125 C 3.664062 -0.703125 4.050781 -0.773438 4.40625 -0.921875 C 4.757812 -1.066406 5.0625 -1.265625 5.3125 -1.515625 C 5.570312 -1.773438 5.773438 -2.070312 5.921875 -2.40625 C 6.078125 -2.75 6.15625 -3.113281 6.15625 -3.5 C 6.15625 -3.882812 6.078125 -4.242188 5.921875 -4.578125 C 5.773438 -4.921875 5.570312 -5.21875 5.3125 -5.46875 C 5.0625 -5.726562 4.757812 -5.929688 4.40625 -6.078125 C 4.050781 -6.222656 3.664062 -6.296875 3.25 -6.296875 L 1.796875 -6.296875 L 1.796875 -0.703125 Z M 3.25 -0.703125 "/></g></g></g><g fill="#ffffff" fill-opacity="1"><g transform="translate(223.390788, 219.853507)"><g><path d="M 1.046875 -7 L 1.796875 -7 L 1.796875 0 L 1.046875 0 Z M 1.046875 -7 "/></g></g></g><g fill="#ffffff" fill-opacity="1"><g transform="translate(232.639699, 219.853507)"><g><path d="M 2.40625 -6.296875 L 0.203125 -6.296875 L 0.203125 -7 L 5.34375 -7 L 5.34375 -6.296875 L 3.15625 -6.296875 L 3.15625 0 L 2.40625 0 Z M 2.40625 -6.296875 "/></g></g></g><g fill="#ffffff" fill-opacity="1"><g transform="translate(244.587542, 219.853507)"><g><path d="M 1.046875 -7 L 1.796875 -7 L 1.796875 -3.90625 L 5.703125 -3.90625 L 5.703125 -7 L 6.453125 -7 L 6.453125 0 L 5.703125 0 L 5.703125 -3.203125 L 1.796875 -3.203125 L 1.796875 0 L 1.046875 0 Z M 1.046875 -7 "/></g></g></g><g fill="#ffffff" fill-opacity="1"><g transform="translate(258.484623, 219.853507)"><g><path d="M 3.796875 0.09375 C 3.398438 0.09375 3.023438 0.0195312 2.671875 -0.125 C 2.328125 -0.269531 2.023438 -0.46875 1.765625 -0.71875 C 1.515625 -0.976562 1.316406 -1.28125 1.171875 -1.625 C 1.023438 -1.976562 0.953125 -2.351562 0.953125 -2.75 L 0.953125 -7 L 1.703125 -7 L 1.703125 -2.75 C 1.703125 -2.4375 1.753906 -2.144531 1.859375 -1.875 C 1.960938 -1.613281 2.109375 -1.390625 2.296875 -1.203125 C 2.484375 -1.015625 2.703125 -0.863281 2.953125 -0.75 C 3.210938 -0.644531 3.492188 -0.59375 3.796875 -0.59375 C 4.097656 -0.59375 4.375 -0.644531 4.625 -0.75 C 4.882812 -0.863281 5.109375 -1.015625 5.296875 -1.203125 C 5.484375 -1.390625 5.628906 -1.613281 5.734375 -1.875 C 5.847656 -2.144531 5.90625 -2.4375 5.90625 -2.75 L 5.90625 -7 L 6.65625 -7 L 6.65625 -2.75 C 6.65625 -2.351562 6.578125 -1.976562 6.421875 -1.625 C 6.273438 -1.28125 6.070312 -0.976562 5.8125 -0.71875 C 5.5625 -0.46875 5.265625 -0.269531 4.921875 -0.125 C 4.578125 0.0195312 4.203125 0.09375 3.796875 0.09375 Z M 3.796875 0.09375 "/></g></g></g><g fill="#ffffff" fill-opacity="1"><g transform="translate(272.48165, 219.853507)"><g><path d="M 0.296875 -7 L 1.09375 -7 L 2.953125 -1.15625 L 4.84375 -7 L 5.546875 -7 L 7.453125 -1.15625 L 9.296875 -7 L 10.09375 -7 L 7.796875 0 L 7.046875 0 L 5.203125 -5.84375 L 3.34375 0 L 2.59375 0 Z M 0.296875 -7 "/></g></g></g><g fill="#ffffff" fill-opacity="1"><g transform="translate(289.277582, 219.853507)"><g><path d="M 3.09375 -7 L 3.796875 -7 L 6.703125 0 L 5.90625 0 L 5.09375 -1.953125 L 1.796875 -1.953125 L 1 0 L 0.203125 0 Z M 4.796875 -2.65625 L 3.453125 -5.953125 L 2.09375 -2.65625 Z M 4.796875 -2.65625 "/></g></g></g><g fill="#ffffff" fill-opacity="1"><g transform="translate(302.574883, 219.853507)"><g><path d="M 1.046875 -7 L 1.796875 -7 L 1.796875 -3.046875 L 5.40625 -7 L 6.34375 -7 L 3.703125 -4.09375 L 6.59375 0 L 5.703125 0 L 3.203125 -3.546875 L 1.796875 -2.046875 L 1.796875 0 L 1.046875 0 Z M 1.046875 -7 "/></g></g></g><g fill="#ffffff" fill-opacity="1"><g transform="translate(315.672268, 219.853507)"><g><path d="M 1.046875 -7 L 1.796875 -7 L 1.796875 -3.046875 L 5.40625 -7 L 6.34375 -7 L 3.703125 -4.09375 L 6.59375 0 L 5.703125 0 L 3.203125 -3.546875 L 1.796875 -2.046875 L 1.796875 0 L 1.046875 0 Z M 1.046875 -7 "/></g></g></g><g fill="#ffffff" fill-opacity="1"><g transform="translate(328.769652, 219.853507)"><g><path d="M 3.796875 0.09375 C 3.398438 0.09375 3.023438 0.0195312 2.671875 -0.125 C 2.328125 -0.269531 2.023438 -0.46875 1.765625 -0.71875 C 1.515625 -0.976562 1.316406 -1.28125 1.171875 -1.625 C 1.023438 -1.976562 0.953125 -2.351562 0.953125 -2.75 L 0.953125 -7 L 1.703125 -7 L 1.703125 -2.75 C 1.703125 -2.4375 1.753906 -2.144531 1.859375 -1.875 C 1.960938 -1.613281 2.109375 -1.390625 2.296875 -1.203125 C 2.484375 -1.015625 2.703125 -0.863281 2.953125 -0.75 C 3.210938 -0.644531 3.492188 -0.59375 3.796875 -0.59375 C 4.097656 -0.59375 4.375 -0.644531 4.625 -0.75 C 4.882812 -0.863281 5.109375 -1.015625 5.296875 -1.203125 C 5.484375 -1.390625 5.628906 -1.613281 5.734375 -1.875 C 5.847656 -2.144531 5.90625 -2.4375 5.90625 -2.75 L 5.90625 -7 L 6.65625 -7 L 6.65625 -2.75 C 6.65625 -2.351562 6.578125 -1.976562 6.421875 -1.625 C 6.273438 -1.28125 6.070312 -0.976562 5.8125 -0.71875 C 5.5625 -0.46875 5.265625 -0.269531 4.921875 -0.125 C 4.578125 0.0195312 4.203125 0.09375 3.796875 0.09375 Z M 3.796875 0.09375 "/></g></g></g></svg>